<svg width="21" height="21" viewBox="0 0 21 21" fill="none" xmlns="http://www.w3.org/2000/svg">
<path d="M17.8919 7.34012C17.8602 7.26095 17.8269 7.18179 17.7929 7.10262C17.2821 5.92463 16.4555 4.91086 15.4044 4.17342H17.1002C17.2682 4.17342 17.4293 4.10669 17.548 3.98792C17.6668 3.86914 17.7335 3.70805 17.7335 3.54008C17.7335 3.37211 17.6668 3.21101 17.548 3.09224C17.4293 2.97346 17.2682 2.90674 17.1002 2.90674H8.86676C7.11565 2.90896 5.42942 3.56965 4.1429 4.75761C2.85638 5.94558 2.06367 7.57392 1.92219 9.31931C1.37511 9.4553 0.889019 9.76988 0.540863 10.2133C0.192707 10.6566 0.00237623 11.2034 0 11.7672C0 11.9351 0.0667267 12.0962 0.185501 12.215C0.304275 12.3338 0.465368 12.4005 0.63334 12.4005C0.801313 12.4005 0.962405 12.3338 1.08118 12.215C1.19995 12.0962 1.26668 11.9351 1.26668 11.7672C1.26683 11.5362 1.33012 11.3097 1.4497 11.1121C1.56928 10.9145 1.74061 10.7534 1.94515 10.6462C2.10279 12.0671 2.69529 13.4047 3.64171 14.4763L4.63605 17.2598C4.72396 17.506 4.88589 17.719 5.09964 17.8695C5.31338 18.0201 5.56847 18.1008 5.8299 18.1006H6.83691C7.0982 18.1006 7.35311 18.0198 7.5667 17.8693C7.78029 17.7188 7.9421 17.5059 8.02996 17.2598L8.18196 16.8339H12.7183L12.8703 17.2598C12.9581 17.5059 13.1199 17.7188 13.3335 17.8693C13.5471 18.0198 13.802 18.1006 14.0633 18.1006H15.0703C15.3316 18.1006 15.5865 18.0198 15.8001 17.8693C16.0137 17.7188 16.1755 17.5059 16.2634 17.2598L17.5467 13.6672H17.7335C18.2374 13.6672 18.7207 13.467 19.077 13.1107C19.4334 12.7544 19.6335 12.2711 19.6335 11.7672V9.23381C19.6336 8.75725 19.4546 8.29807 19.132 7.94731C18.8094 7.59655 18.3668 7.37983 17.8919 7.34012ZM12.0335 6.06711H8.86676C8.69879 6.06711 8.5377 6.00038 8.41893 5.8816C8.30015 5.76283 8.23342 5.60174 8.23342 5.43377C8.23342 5.26579 8.30015 5.1047 8.41893 4.98593C8.5377 4.86715 8.69879 4.80043 8.86676 4.80043H12.0335C12.2014 4.80043 12.3625 4.86715 12.4813 4.98593C12.6001 5.1047 12.6668 5.26579 12.6668 5.43377C12.6668 5.60174 12.6001 5.76283 12.4813 5.8816C12.3625 6.00038 12.2014 6.06711 12.0335 6.06711ZM14.2502 10.5005C14.0623 10.5005 13.8786 10.4448 13.7224 10.3404C13.5661 10.236 13.4444 10.0876 13.3725 9.91403C13.3006 9.74044 13.2817 9.54942 13.3184 9.36514C13.3551 9.18086 13.4455 9.01158 13.5784 8.87872C13.7113 8.74586 13.8805 8.65538 14.0648 8.61872C14.2491 8.58206 14.4401 8.60088 14.6137 8.67278C14.7873 8.74469 14.9357 8.86645 15.0401 9.02268C15.1444 9.17891 15.2002 9.36258 15.2002 9.55048C15.2002 9.80244 15.1001 10.0441 14.9219 10.2222C14.7438 10.4004 14.5021 10.5005 14.2502 10.5005Z" fill="#FF7429"/>
</svg>
