<svg width="20" height="21" viewBox="0 0 20 21" fill="none" xmlns="http://www.w3.org/2000/svg">
<g clip-path="url(#clip0_1677_175)">
<path d="M20 18L16.25 20.5V19.25H10.3125L12.8125 16.75H16.25V15.5L20 18ZM0 3L3.75 0.5V1.75H9.6875L7.1875 4.25H3.75V5.5L0 3ZM12.175 0.5L0 12.675L7.825 20.5L20 8.325L12.175 0.5ZM1.7375 12.675L12.175 2.2375L18.2625 8.325L7.825 18.7625L1.7375 12.675Z" fill="#FF7429"/>
<path d="M5.21252 12.6752L4.33752 13.5502L6.95002 16.1627L7.82502 15.2877L8.75002 16.1502L12.175 12.6752C11.5953 13.238 10.8174 13.5502 10.0094 13.5442C9.20145 13.5383 8.42826 13.2147 7.85691 12.6433C7.28557 12.072 6.96195 11.2988 6.95598 10.4908C6.95002 9.68281 7.26218 8.90492 7.82502 8.3252L4.35002 11.7502L5.21252 12.6752Z" fill="#FF7429"/>
<path d="M15.65 7.4626L13.0375 4.8501L12.1625 5.7251L11.25 4.8501L7.82501 8.3251C8.40473 7.76225 9.18262 7.45009 9.9906 7.45606C10.7986 7.46202 11.5718 7.78564 12.1431 8.35699C12.7145 8.92833 13.0381 9.70153 13.0441 10.5095C13.05 11.3175 12.7379 12.0954 12.175 12.6751L15.65 9.2501L14.775 8.3751L15.65 7.4626Z" fill="#FF7429"/>
</g>
<defs>
<clipPath id="clip0_1677_175">
<rect width="20" height="20" fill="white" transform="translate(0 0.5)"/>
</clipPath>
</defs>
</svg>
